<?xml version="1.0" encoding="UTF-8"?>
<svg width="212px" height="212px" viewBox="0 0 212 212" version="1.1" xmlns="http://www.w3.org/2000/svg" xmlns:xlink="http://www.w3.org/1999/xlink">
    <title>Martinsson Photography</title>
    <g id="Martinsson-Photography" stroke="none" stroke-width="1" fill="none" fill-rule="evenodd">
        <g id="First-ring" transform="translate(6.167035, 6.694690)" fill="#000000">
            <path d="M100,0 C113.13,0 126.14,2.58 138.27,7.61 L138.205,7.766 L138.27,7.61 C150.4,12.64 161.42,20 170.71,29.29 L170.71,29.29 C180,38.58 187.36,49.6 192.39,61.73 L190.54,62.5 C185.737143,50.8930952 178.742506,40.3153741 169.946797,31.3528997 L169.3,30.7 C160.2,21.6 149.39,14.38 137.5,9.46 L137.5,9.46 C125.61,4.54 112.87,2 100,2 C87.13,2 74.39,4.54 62.5,9.46 L61.73,7.61 C73.86,2.58 86.87,0 100,0 Z M61.73,7.61 L62.5,9.46 C50.61,14.38 39.8,21.6 30.7,30.7 L29.29,29.29 C38.58,20 49.6,12.64 61.73,7.61 Z M100,200 C86.87,200 73.86,197.42 61.73,192.39 L62.5,190.54 C74.1,195.34 86.5090422,197.874682 99.0585351,197.995469 L100,198 C112.87,198 125.61,195.46 137.5,190.54 L138.27,192.39 C126.42881,197.300238 113.749025,199.875754 100.937643,199.995614 L100,200 L100,200 Z M9.46,137.5 C14.38,149.39 21.6,160.2 30.7,169.3 L29.29,170.71 C20,161.42 12.64,150.4 7.61,138.27 L9.46,137.5 Z M2,100 C2,112.87 4.54,125.61 9.46,137.5 L7.61,138.27 C2.58,126.14 0,113.13 0,100 L2,100 Z" id="Combined-Shape"></path>
        </g>
        <g id="Second-ring" transform="translate(106.338322, 109.705140) rotate(-11.000000) translate(-106.338322, -109.705140) translate(16.338322, 23.130140)" fill="#000000">
            <path d="M153.64,19.51 C161.785641,27.655641 168.288863,37.2823077 172.798152,47.8719818 L173.15,48.71 C177.67,59.63 180,71.33 180,83.15 L178,83.15 C178,71.59 175.72,60.15 171.3,49.47 C166.88,38.79 160.4,29.09 152.23,20.92 L153.64,19.51 Z M171.3,116.83 L173.15,117.59 C168.63,128.51 162,138.43 153.64,146.79 L153.638,146.789 L152.976307,147.446851 C144.973295,155.28571 135.581485,161.560735 125.278018,165.948152 L124.44,166.3 C113.52,170.82 101.82,173.15 90,173.15 L90,171.15 C101.247568,171.15 112.381534,168.991578 122.812401,164.803686 L123.68,164.45 C134.36,160.03 144.06,153.55 152.23,145.38 C160.4,137.21 166.88,127.51 171.3,116.83 Z M180,83.15 C180,94.97 177.67,106.67 173.15,117.59 L171.3,116.83 C175.72,106.15 178,94.71 178,83.15 L180,83.15 Z" id="Combined-Shape"></path>
            <path d="M8.7,49.47 C4.28,60.15 2,71.59 2,83.15 L-7.44636984e-14,83.15 C-7.44636984e-14,71.33 2.33,59.63 6.85,48.71 C11.37,37.79 18,27.87 26.36,19.51 C34.72,11.15 44.64,4.52 55.56,-8.65000044e-14 L56.32,1.85 C45.64,6.27 35.94,12.75 27.77,20.92 C19.6,29.09 13.12,38.79 8.7,49.47 Z" id="Combined-Shape"></path>
        </g>
        <g id="Third-ring" transform="translate(105.897209, 103.305485) rotate(4.000000) translate(-105.897209, -103.305485) translate(25.897209, 26.350485)" fill="#000000">
            <path d="M152.06,109.85 L153.91,110.61 C149.89,120.32 144,129.14 136.57,136.57 L135.15,135.15 C142.39,127.91 148.14,119.31 152.06,109.85 Z M153.91,49.39 C157.929873,59.0996921 159.999869,69.4893411 160,79.9990002 L160,80 C160,90.51 157.93,100.9 153.91,110.61 L152.06,109.85 C155.979872,100.390308 157.999869,90.2406605 158,80.0009995 L158,80 C158,69.76 155.98,59.61 152.06,50.15 L153.91,49.39 Z M80,5.32768526e-13 C90.2097143,5.32768526e-13 100.306188,1.95340408 109.776062,5.75020688 L110.61,6.09 C120.042571,9.99514286 128.635273,15.6649551 135.92975,22.796922 L136.57,23.43 C144,30.86 149.89,39.68 153.91,49.39 L152.06,50.15 C148.14,40.69 142.39,32.09 135.15,24.85 C127.91,17.61 119.31,11.86 109.85,7.94 C100.39,4.02 90.24,2 80,2 L80,5.32768526e-13 Z M49.39,6.09 C59.1,2.07 69.49,5.67048928e-14 80,5.67048928e-14 L80,2 C69.76,2 59.61,4.02 50.15,7.94 L49.39,6.09 Z" id="Combined-Shape"></path>
            <path d="M2,80 C2,89.9388235 3.90292388,99.7928633 7.5990515,109.013519 L7.94,109.85 C11.748,119.039714 17.2829224,127.417869 24.2330855,134.52611 L24.85,135.15 C32.09,142.39 40.69,148.14 50.15,152.06 L49.39,153.91 C39.68,149.89 30.86,144 23.43,136.57 C16,129.14 10.11,120.32 6.09,110.61 C2.07,100.9 1.80364472e-13,90.51 1.80364472e-13,80 L2,80 Z M2.67096057e-14,80 C2.67096057e-14,69.49 2.07,59.1 6.09,49.39 L7.94,50.15 C4.02,59.61 2,69.76 2,80 L2.67096057e-14,80 Z" id="Combined-Shape"></path>
        </g>
        <g id="Fourth-ring" transform="translate(40.703052, 56.773268)" fill="#000000">
            <path d="M127.49,23.48 L127.49,23.48 C124.07,15.23 119.06,7.73 112.75,1.42 L114.17,0 C120.67,6.5 125.82,14.22 129.34,22.71 L129.34,22.71 C132.86,31.2 134.67,40.31 134.67,49.5 C134.67,58.69 132.86,67.8 129.34,76.29 L127.49,75.52 C130.91,67.27 132.67,58.43 132.67,49.5 C132.67,40.57 130.91,31.73 127.49,23.48 Z" id="Combined-Shape"></path>
            <path d="M1.85,75.52 C5.27,83.77 10.28,91.27 16.59,97.58 C22.9,103.89 30.4,108.9 38.65,112.32 L38.65,112.32 C46.9,115.74 55.74,117.5 64.67,117.5 L64.67,119.5 C55.48,119.5 46.37,117.69 37.88,114.17 L37.88,114.17 C29.39,110.65 21.67,105.5 15.17,99 L15.17,98.999 L14.5828177,98.4057425 C8.35937557,92.0314141 3.41333333,84.5227273 0,76.29 L1.85,75.52 Z" id="Combined-Shape"></path>
        </g>
        <g id="Fifth-ring" transform="translate(44.954212, 50.965015)" fill="#000000">
            <path d="M82.96,0 C89.9973333,2.91933333 96.4179333,7.13754444 101.869514,12.4468752 L102.43,13 C108,18.57 112.41,25.19 115.43,32.47 L115.43,32.47 C118.45,39.75 120,47.55 120,55.43 L118,55.43 C118,47.81 116.5,40.27 113.59,33.23 L113.59,33.23 C110.68,26.19 106.4,19.81 101.01,14.42 C95.62,9.03 89.24,4.75 82.2,1.84 L82.96,0 Z M120,55.43 C120,63.31 118.45,71.11 115.43,78.39 L115.43,78.39 C112.41,85.67 108,92.29 102.43,97.86 L101.01,96.44 C106.4,91.05 110.68,84.67 113.59,77.63 L113.59,77.63 C116.5,70.59 118,63.05 118,55.43 L120,55.43 Z" id="Combined-Shape"></path>
            <path d="M2,55.43 C2,62.7872414 3.39833532,70.0699049 6.11399893,76.8999578 L6.41,77.63 C9.32,84.67 13.6,91.05 18.99,96.44 L17.57,97.86 C12,92.29 7.59,85.67 4.57,78.39 L4.57,78.39 C1.55,71.11 0,63.31 0,55.43 L2,55.43 Z M17.57,13 L18.99,14.42 C13.7858621,19.6241379 9.61649227,25.7511772 6.71591086,32.504092 L6.41,33.23 C3.5,40.27 2,47.81 2,55.43 L0,55.43 C0,47.55 1.55,39.75 4.57,32.47 L4.57,32.47 C7.59,25.19 12,18.57 17.57,13 Z" id="Combined-Shape"></path>
        </g>
        <g id="Sixth-ring" transform="translate(58.756979, 56.197768)" fill="#000000">
            <path d="M81.55,14.64 C86.0242857,19.1142857 89.6059184,24.4068367 92.106604,30.2217625 L92.38,30.87 C94.89,36.94 96.19,43.43 96.19,50 L94.19,50 C94.19,43.7 92.95,37.45 90.54,31.63 C88.13,25.81 84.59,20.52 80.13,16.06 L81.55,14.64 Z M65.32,3.81 C71.39,6.32 76.91,10 81.55,14.64 L80.13,16.06 C75.67,11.6 70.38,8.06 64.56,5.65 L65.32,3.81 Z M96.19,50 C96.19,56.57 94.89,63.06 92.38,69.13 L90.54,68.37 C92.95,62.55 94.19,56.3 94.19,50 L96.19,50 Z" id="Combined-Shape"></path>
            <path d="M65.32,96.19 C59.25,98.7 52.76,100 46.19,100 L46.19,98 C52.49,98 58.74,96.76 64.56,94.35 L65.32,96.19 Z M12.25,83.94 C16.5448148,88.2348148 21.6092867,91.6765158 27.1755296,94.0775827 L27.82,94.35 C33.64,96.76 39.89,98 46.19,98 L46.19,100 C39.6203594,100 33.1307101,98.7001422 27.0609962,96.1904119 L27.06,96.19 C20.99,93.68 15.47,90 10.83,85.36 L12.25,83.94 Z" id="Combined-Shape"></path>
            <path d="M1.84,31.63 L0,30.87 C2.51,24.8 6.19,19.28 10.83,14.64 L11.759,15.568 L10.83,14.64 C15.47,10 20.99,6.32 27.06,3.81 L27.06,3.81 L27.7361556,3.53609511 C33.6108505,1.20548697 39.8633333,0 46.19,0 L46.19,2 C40.1323077,2 34.1208432,3.1464497 28.4934251,5.37711937 L27.82,5.65 C22,8.06 16.71,11.6 12.25,16.06 C7.79,20.52 4.25,25.81 1.84,31.63 Z" id="Combined-Shape"></path>
        </g>
        <g id="Seventh-ring" transform="translate(65.160463, 67.124393)" fill="#000000">
            <path d="M66.87,66.87 L68.28,68.28 C64.7245833,71.8354167 60.5262847,74.7020313 55.9139395,76.7038166 L55.31,76.96 C50.46,78.97 45.25,80 40,80 L40,78 C44.7730435,78 49.5003403,77.1033648 53.9368472,75.3538522 L54.54,75.11 C59.15,73.2 63.34,70.4 66.87,66.87 Z M75.11,25.46 C73.2,20.85 70.4,16.66 66.87,13.13 L68.28,11.72 C71.8354167,15.2754167 74.7020312,19.4737153 76.7038166,24.0860605 L76.96,24.69 C78.97,29.54 80,34.75 80,40 C80,45.25 78.97,50.46 76.96,55.31 C74.95,60.16 71.99,64.57 68.28,68.28 L66.87,66.87 C70.4,63.34 73.2,59.15 75.11,54.54 C77.02,49.93 78,44.99 78,40 C78,35.01 77.02,30.07 75.11,25.46 Z M40,0 C45.25,0 50.46,1.03 55.31,3.04 C60.16,5.05 64.57,8.01 68.28,11.72 L66.87,13.13 C63.4934783,9.75347826 59.5131002,7.04485822 55.1389028,5.14416454 L54.54,4.89 C49.93,2.98 44.99,2 40,2 L40,0 Z M13.13,66.87 C16.5065217,70.2465217 20.4868998,72.9551418 24.8610972,74.8558355 L25.46,75.11 C30.07,77.02 35.01,78 40,78 L40,80 C34.75,80 29.54,78.97 24.69,76.96 C19.84,74.95 15.43,71.99 11.72,68.28 L13.13,66.87 Z M3.04,24.69 C5.05,19.84 8.01,15.43 11.72,11.72 L13.13,13.13 C9.6,16.66 6.8,20.85 4.89,25.46 L4.89,25.46 C2.98,30.07 2,35.01 2,40 C2,44.99 2.98,49.93 4.89,54.54 C6.8,59.15 9.6,63.34 13.13,66.87 L11.72,68.28 C8.01,64.57 5.05,60.16 3.04,55.31 C1.03,50.46 0,45.25 0,40 C0,34.75 1.03,29.54 3.04,24.69 Z M40,0 L40,2 C35.01,2 30.07,2.98 25.46,4.89 L25.46,4.89 C20.85,6.8 16.66,9.6 13.13,13.13 L11.72,11.72 C15.43,8.01 19.84,5.05 24.69,3.04 C29.54,1.03 34.75,0 40,0 Z" id="Combined-Shape"></path>
        </g>
        <g id="Namnlogga" transform="translate(89.752042, 94.000000)" stroke="#000000" stroke-width="2">
            <path d="M28.8254681,30 C28.8254681,23.7145428 29.2514698,13.7145428 30.1034731,0 L15.1545987,25.2859071 C15.1202068,25.3056564 15.0979663,25.3056564 15.0878775,25.2859071 C10.0696006,15.4624907 5.0403081,7.03385497 0,0 C0.989152934,14.0288157 1.4837294,24.0288157 1.4837294,30" id="M"></path>
            <path d="M8.08340715,30 C8.08000808,24.6328602 10.4226819,14.6328602 15.1114286,0 C20.168542,14.6573614 22.6970988,24.6573614 22.6970988,30" id="A"></path>
        </g>
    </g>
</svg>